<mxfile host="app.diagrams.net" modified="2023-09-27T18:41:10.360Z" agent="Mozilla/5.0 (X11; Linux x86_64) AppleWebKit/537.36 (KHTML, like Gecko) Chrome/117.0.0.0 Safari/537.36" version="21.8.2" etag="lGtY5da2Y6GVrZmBSKPH" type="github">
  <diagram name="Page-1" id="oiC3ku-AsZw_mbvz9ah7">
    <mxGraphModel>
      <root>
        <mxCell id="0" />
        <mxCell id="1" parent="0" />
      </root>
    </mxGraphModel>
  </diagram>
</mxfile>
